<?xml version="1.0" encoding="UTF-8" standalone="no"?>
<svg
   xmlns:dc="http://purl.org/dc/elements/1.1/"
   xmlns:cc="http://creativecommons.org/ns#"
   xmlns:rdf="http://www.w3.org/1999/02/22-rdf-syntax-ns#"
   xmlns:svg="http://www.w3.org/2000/svg"
   xmlns="http://www.w3.org/2000/svg"
   viewBox="0 0 938.85333 212.05333"
   height="212.05333"
   width="938.85333"
   xml:space="preserve"
   id="svg2"
   version="1.1"><metadata
     id="metadata8"><rdf:RDF><cc:Work
         rdf:about=""><dc:format>image/svg+xml</dc:format><dc:type
           rdf:resource="http://purl.org/dc/dcmitype/StillImage" /></cc:Work></rdf:RDF></metadata><defs
     id="defs6" /><g
     transform="matrix(1.3333333,0,0,-1.3333333,0,212.05333)"
     id="g10"><g
       transform="scale(0.1)"
       id="g12"><path
         id="path14"
         style="fill:#7b7979;fill-opacity:1;fill-rule:nonzero;stroke:none"
         d="m 1930.63,768.008 h 40.19 c 9.18,0 14.93,-4.59 14.93,-14.934 0,-89.566 -55.12,-184.883 -181.45,-184.883 -112.54,0 -187.19,64.309 -187.19,206.704 v 172.261 c 0,151.584 74.65,211.304 187.19,211.304 66.61,0 152.74,-24.12 171.11,-140.1 1.15,-5.75 2.3,-11.49 -6.89,-14.93 l -42.49,-11.489 c -6.89,-2.293 -11.48,1.149 -12.63,9.189 -4.6,41.34 -33.31,93.02 -109.1,93.02 -82.68,0 -120.58,-49.38 -120.58,-149.291 V 774.895 c 0,-81.528 41.34,-142.395 120.58,-142.395 81.53,0 114.84,68.898 114.84,122.883 0,12.625 11.49,12.625 11.49,12.625" /><path
         id="path16"
         style="fill:#7b7979;fill-opacity:1;fill-rule:nonzero;stroke:none"
         d="M 2318.77,622.168 V 579.68 c 0,0 0,-11.489 -11.48,-11.489 -167.66,0 -181.44,122.875 -181.44,187.192 v 613.227 c 0,11.48 10.33,11.48 10.33,11.48 h 44.79 c 0,0 11.48,0 11.48,-11.48 V 755.383 c 0,-82.688 27.56,-122.883 114.84,-122.883 11.48,0 11.48,-10.332 11.48,-10.332" /><path
         id="path18"
         style="fill:#7b7979;fill-opacity:1;fill-rule:nonzero;stroke:none"
         d="m 2702.33,773.75 v 172.258 c 0,112.542 -49.38,148.142 -118.28,148.142 -68.9,0 -118.28,-35.6 -118.28,-148.142 V 773.75 c 0,-89.57 50.53,-141.25 118.28,-141.25 67.76,0 118.28,51.68 118.28,141.25 z m 66.61,172.258 V 774.895 c 0,-125.168 -56.27,-206.704 -184.89,-206.704 -128.62,0 -184.89,81.536 -184.89,206.704 v 171.113 c 0,136.662 59.72,212.452 184.89,212.452 125.17,0 184.89,-75.79 184.89,-212.452" /><path
         id="path20"
         style="fill:#7b7979;fill-opacity:1;fill-rule:nonzero;stroke:none"
         d="m 3269.64,587.711 c 0,-11.481 -12.63,-11.481 -12.63,-11.481 h -42.49 c 0,0 -11.48,0 -11.48,11.481 v 40.187 c -16.08,-30.996 -57.42,-59.707 -126.33,-59.707 -97.61,0 -175.7,56.274 -175.7,197.524 v 373.225 c 0,11.48 10.34,11.48 10.34,11.48 h 45.93 c 0,0 10.34,0 10.34,-11.48 V 765.715 c 0,-90.727 36.75,-133.215 115.98,-133.215 36.75,0 119.44,19.523 119.44,133.215 v 373.225 c 0,11.48 10.33,11.48 10.33,11.48 h 45.94 c 0,0 10.33,0 10.33,-11.48 V 587.711" /><path
         id="path22"
         style="fill:#7b7979;fill-opacity:1;fill-rule:nonzero;stroke:none"
         d="m 3706.03,964.379 c 0,99.911 -68.91,129.771 -124.03,129.771 -76.94,0 -113.69,-51.68 -113.69,-129.771 V 754.23 c 0,-67.753 45.94,-121.73 109.1,-121.73 74.64,0 128.62,39.055 128.62,121.73 z m 66.6,-376.668 c 0,-11.481 -11.48,-11.481 -11.48,-11.481 h -44.79 c 0,0 -10.33,0 -10.33,11.481 v 40.187 c -36.75,-49.367 -88.43,-59.707 -128.62,-59.707 -103.36,0 -175.71,80.395 -175.71,186.039 0,0 0,180.293 0,210.149 0,106.801 59.72,194.081 180.3,194.081 44.79,0 103.35,-19.52 124.03,-52.83 v 262.98 c 0,11.48 10.33,11.48 10.33,11.48 h 45.93 c 5.75,0 10.34,-4.59 10.34,-11.48 V 587.711" /><path
         id="path24"
         style="fill:#4f4c4c;fill-opacity:1;fill-rule:nonzero;stroke:none"
         d="m 4223.96,768.008 h 40.19 c 9.18,0 14.92,-4.59 14.92,-14.934 0,-89.566 -55.11,-184.883 -181.44,-184.883 -112.54,0 -187.18,64.309 -187.18,206.704 v 172.261 c 0,151.584 74.64,211.304 187.18,211.304 66.61,0 152.73,-24.12 171.11,-140.1 1.15,-5.75 2.3,-11.49 -6.89,-14.93 l -42.49,-11.489 c -6.89,-2.293 -11.49,1.149 -12.63,9.189 -4.6,41.34 -33.3,93.02 -109.1,93.02 -82.68,0 -120.58,-49.38 -120.58,-149.291 V 774.895 c 0,-81.528 41.35,-142.395 120.58,-142.395 81.54,0 114.84,68.898 114.84,122.883 0,12.625 11.49,12.625 11.49,12.625" /><path
         id="path26"
         style="fill:#4f4c4c;fill-opacity:1;fill-rule:nonzero;stroke:none"
         d="m 4714.31,1002.28 c 0,59.71 -47.08,91.87 -114.84,91.87 -89.57,0 -121.73,-57.42 -121.73,-127.47 v -93.016 l 236.57,44.781 z m 66.61,-256.089 c 0,-114.836 -75.79,-178 -184.89,-178 -109.1,0 -184.89,75.793 -184.89,178 V 966.68 c 0,110.25 73.5,191.78 194.07,191.78 99.92,0 175.71,-66.61 175.71,-153.89 V 902.363 c 0,-19.511 -10.34,-39.031 -39.04,-44.785 l -264.14,-49.375 c 0,-19.519 0,-62.012 0,-62.012 3.45,-64.304 44.79,-113.691 118.29,-113.691 74.64,0 119.43,43.645 119.43,113.691 0,5.743 6.88,8.039 6.88,8.039 h 52.84 c 0,0 5.74,-2.296 5.74,-8.039" /><path
         id="path28"
         style="fill:#4f4c4c;fill-opacity:1;fill-rule:nonzero;stroke:none"
         d="m 4935.96,1138.94 c 0,11.48 10.33,11.48 10.33,11.48 h 45.94 c 0,0 10.33,0 10.33,-11.48 v -33.31 c 26.41,36.75 72.34,52.83 121.73,52.83 103.35,0 180.29,-67.76 180.29,-195.23 V 587.711 c 0,-11.481 -11.48,-11.481 -11.48,-11.481 h -43.64 c 0,0 -11.48,0 -11.48,11.481 V 963.23 c 0,74.65 -32.16,130.92 -117.14,130.92 -91.87,0 -118.28,-70.05 -118.28,-130.92 V 587.711 c 0,-11.481 -12.64,-11.481 -12.64,-11.481 h -42.48 c 0,0 -11.48,0 -11.48,11.481 v 551.229" /><path
         id="path30"
         style="fill:#4f4c4c;fill-opacity:1;fill-rule:nonzero;stroke:none"
         d="m 5631.88,576.23 c -113.7,0 -176.86,45.938 -176.86,174.551 v 324.999 h -49.38 c -11.48,0 -11.48,10.33 -11.48,10.33 v 42.49 c 0,0 0,11.48 11.48,11.48 h 49.38 v 205.56 c 0,11.49 10.34,11.49 10.34,11.49 h 44.79 c 0,0 11.48,0 11.48,-11.49 v -205.56 h 120.58 c 11.48,0 11.48,-10.33 11.48,-10.33 v -42.49 c 0,0 0,-11.48 -11.48,-11.48 H 5521.63 V 750.781 c 0,-90.715 33.3,-109.09 110.25,-110.242 h 6.88 c 11.48,0 11.48,-10.332 11.48,-10.332 v -42.496 c 0,0 0,-11.481 -11.48,-11.481 h -6.88" /><path
         id="path32"
         style="fill:#4f4c4c;fill-opacity:1;fill-rule:nonzero;stroke:none"
         d="M 5853.52,959.789 V 587.711 c 0,-11.481 -12.64,-11.481 -12.64,-11.481 h -42.48 c 0,0 -11.49,0 -11.49,11.481 v 551.229 c 0,11.48 11.49,11.48 11.49,11.48 h 42.48 c 0,0 12.64,0 12.64,-11.48 v -33.31 c 24.11,41.34 82.68,52.83 124.02,52.83 11.48,0 11.48,-11.49 11.48,-11.49 v -42.49 c 0,0 0,-12.63 -11.48,-12.63 -86.12,0 -124.02,-45.93 -124.02,-132.061" /><path
         id="path34"
         style="fill:#4f4c4c;fill-opacity:1;fill-rule:nonzero;stroke:none"
         d="m 6365.68,765.715 v 83.836 l -159.63,-36.746 c -66.6,-14.946 -75.79,-67.754 -75.79,-97.617 0,-53.977 40.2,-82.688 102.21,-82.688 78.09,0 133.21,64.309 133.21,133.215 z m -302.02,-57.422 c 0,84.98 32.15,145.848 135.51,171.109 l 166.51,39.043 v 63.16 c -3.44,64.315 -47.08,112.545 -113.69,112.545 -68.9,0 -106.79,-39.05 -106.79,-98.763 0,-5.739 -6.9,-8.039 -6.9,-8.039 h -55.12 c 0,0 -5.74,2.3 -5.74,8.039 0,99.913 75.79,163.073 174.55,163.073 94.17,0 180.3,-62.01 180.3,-195.23 V 587.711 c 0,-11.481 -10.34,-11.481 -10.34,-11.481 h -44.78 c 0,0 -11.49,0 -11.49,11.481 v 40.187 c -36.74,-49.367 -93.01,-59.707 -133.21,-59.707 -106.8,0 -168.81,57.422 -168.81,140.102" /><path
         id="path36"
         style="fill:#4f4c4c;fill-opacity:1;fill-rule:nonzero;stroke:none"
         d="M 6782.56,622.168 V 579.68 c 0,0 0,-11.489 -11.48,-11.489 -167.66,0 -181.44,122.875 -181.44,187.192 v 613.227 c 0,11.48 10.33,11.48 10.33,11.48 h 44.79 c 0,0 11.48,0 11.48,-11.48 V 755.383 c 0,-82.688 27.56,-122.883 114.84,-122.883 11.48,0 11.48,-10.332 11.48,-10.332" /><path
         id="path38"
         style="fill:#2b93cf;fill-opacity:1;fill-rule:nonzero;stroke:none"
         d="m 1331.88,1590.42 -178,-983.154 -550.868,152.91 z" /><path
         id="path40"
         style="fill:#3db9ea;fill-opacity:1;fill-rule:nonzero;stroke:none"
         d="M 603.012,760.176 1331.88,1590.42 0,1555.06 Z" /><path
         id="path42"
         style="fill:#62ccf2;fill-opacity:1;fill-rule:nonzero;stroke:none"
         d="M 311.977,315.809 0.0390625,1555.13 603.012,760.176 Z" /><path
         id="path44"
         style="fill:#1f729e;fill-opacity:1;fill-rule:nonzero;stroke:none"
         d="M 1153.88,607.266 603.012,760.176 311.977,315.781 Z" /><path
         id="path46"
         style="fill:#4f4c4c;fill-opacity:1;fill-rule:nonzero;stroke:none"
         d="m 6861.37,1408.99 h -35.56 v 12.91 h 86.48 v -12.91 h -35.79 v -103.83 h -15.13 v 103.83" /><path
         id="path48"
         style="fill:#4f4c4c;fill-opacity:1;fill-rule:nonzero;stroke:none"
         d="m 7023.73,1356.37 c -0.9,16.36 -1.9,35.86 -1.65,50.45 h -0.61 c -4.01,-13.77 -8.84,-28.5 -14.85,-44.29 l -20.54,-56.63 h -11.45 l -18.8,55.53 c -5.64,16.47 -10.36,31.52 -13.54,45.39 h -0.24 c -0.4,-14.59 -1.33,-34.09 -2.27,-51.61 l -3.29,-50.05 h -14.4 l 8.13,116.74 h 19.28 l 19.98,-56.5 c 4.86,-14.39 8.86,-27.12 11.75,-39.26 h 0.53 c 2.94,11.72 7.08,24.54 12.17,39.26 l 20.89,56.5 h 19.3 l 7.3,-116.74 h -14.79 l -2.9,51.21" /><path
         id="path50"
         style="fill:#7b7979;fill-opacity:1;fill-rule:nonzero;stroke:none"
         d="m 1687.35,234.961 c -39.5,0 -45.14,-27.199 -45.14,-36.941 0,-10.77 4.1,-23.598 18.98,-31.29 25.13,-13.339 36.42,-20.011 62.07,-33.859 36.42,-20.012 41.55,-45.6522 41.55,-66.6913 C 1764.81,30.2695 1737.11,0 1689.4,0 c -62.58,0 -83.62,50.2695 -83.62,77.4609 0,5.1407 4.62,5.1407 4.62,5.1407 h 20.52 c 0,0 5.13,0 5.13,-5.1407 0,-27.1914 20.52,-48.7304 54.38,-48.7304 23.09,0 45.14,15.3906 45.14,37.4492 0,12.8203 -2.56,27.7109 -29.75,42.0583 L 1649.9,138 c -27.19,14.359 -36.94,40.531 -36.94,58.988 0,25.66 17.45,66.692 74.39,66.692 37.96,0 70.79,-18.969 73.36,-60.532 0,-2.558 0.51,-5.128 -4.1,-6.16 l -18.47,-3.066 c -3.59,-0.512 -5.13,1.019 -5.64,4.617 -2.06,16.922 -10.26,36.422 -45.15,36.422" /><path
         id="path52"
         style="fill:#7b7979;fill-opacity:1;fill-rule:nonzero;stroke:none"
         d="m 1964.4,193.922 c 0,26.68 -21.04,41.039 -51.3,41.039 -40.02,0 -54.38,-25.652 -54.38,-56.941 v -41.559 l 105.68,20 z M 1994.15,79.5195 C 1994.15,28.2188 1960.29,0 1911.56,0 c -48.74,0 -82.6,33.8594 -82.6,79.5195 V 178.02 c 0,49.25 32.84,85.66 86.7,85.66 44.63,0 78.49,-29.739 78.49,-68.739 v -45.652 c 0,-8.719 -4.61,-17.437 -17.44,-20.008 l -117.99,-22.062 c 0,-8.719 0,-27.6995 0,-27.6995 1.54,-28.7304 20.01,-50.789 52.84,-50.789 33.34,0 53.35,19.4883 53.35,50.789 0,2.5625 3.08,3.5899 3.08,3.5899 h 23.6 c 0,0 2.56,-1.0274 2.56,-3.5899" /><path
         id="path54"
         style="fill:#7b7979;fill-opacity:1;fill-rule:nonzero;stroke:none"
         d="m 2203.49,89.2695 h 17.95 c 4.11,0 6.67,-2.0507 6.67,-6.6679 C 2228.11,42.582 2203.49,0 2147.06,0 c -50.28,0 -83.62,28.7305 -83.62,92.3398 v 76.9612 c 0,67.711 33.34,94.379 83.62,94.379 29.75,0 68.23,-10.77 76.44,-62.578 0.51,-2.563 1.02,-5.133 -3.08,-6.672 l -18.98,-5.129 c -3.08,-1.031 -5.14,0.508 -5.65,4.109 -2.05,18.469 -14.88,41.551 -48.73,41.551 -36.94,0 -53.87,-22.063 -53.87,-66.691 V 92.3398 c 0,-36.4179 18.47,-63.6093 53.87,-63.6093 36.42,0 51.3,30.7812 51.3,54.8906 0,5.6484 5.13,5.6484 5.13,5.6484" /><path
         id="path56"
         style="fill:#7b7979;fill-opacity:1;fill-rule:nonzero;stroke:none"
         d="m 2462.07,8.71875 c 0,-5.12891 -5.65,-5.12891 -5.65,-5.12891 h -18.98 c 0,0 -5.13,0 -5.13,5.12891 V 26.6797 C 2425.13,12.8281 2406.66,0 2375.88,0 c -43.6,0 -78.49,25.1406 -78.49,88.2383 V 254.961 c 0,5.141 4.62,5.141 4.62,5.141 h 20.52 c 0,0 4.62,0 4.62,-5.141 V 88.2383 c 0,-40.5274 16.41,-59.5078 51.81,-59.5078 16.42,0 53.35,8.7187 53.35,59.5078 V 254.961 c 0,5.141 4.62,5.141 4.62,5.141 h 20.52 c 0,0 4.62,0 4.62,-5.141 V 8.71875" /><path
         id="path58"
         style="fill:#7b7979;fill-opacity:1;fill-rule:nonzero;stroke:none"
         d="M 2571.36,174.93 V 8.71875 c 0,-5.12891 -5.64,-5.12891 -5.64,-5.12891 h -18.98 c 0,0 -5.13,0 -5.13,5.12891 V 254.961 c 0,5.141 5.13,5.141 5.13,5.141 h 18.98 c 0,0 5.64,0 5.64,-5.141 V 240.09 c 10.77,18.461 36.94,23.59 55.41,23.59 5.12,0 5.12,-5.129 5.12,-5.129 V 239.57 c 0,0 0,-5.629 -5.12,-5.629 -38.48,0 -55.41,-20.531 -55.41,-59.011" /><path
         id="path60"
         style="fill:#7b7979;fill-opacity:1;fill-rule:nonzero;stroke:none"
         d="m 2821.21,193.922 c 0,26.68 -21.03,41.039 -51.3,41.039 -40.02,0 -54.38,-25.652 -54.38,-56.941 v -41.559 l 105.68,20 z M 2850.96,79.5195 C 2850.96,28.2188 2817.1,0 2768.37,0 c -48.74,0 -82.59,33.8594 -82.59,79.5195 V 178.02 c 0,49.25 32.83,85.66 86.7,85.66 44.62,0 78.48,-29.739 78.48,-68.739 v -45.652 c 0,-8.719 -4.61,-17.437 -17.44,-20.008 l -117.99,-22.062 c 0,-8.719 0,-27.6995 0,-27.6995 1.54,-28.7304 20.01,-50.789 52.84,-50.789 33.34,0 53.35,19.4883 53.35,50.789 0,2.5625 3.08,3.5899 3.08,3.5899 h 23.6 c 0,0 2.56,-1.0274 2.56,-3.5899" /><path
         id="path62"
         style="fill:#7b7979;fill-opacity:1;fill-rule:nonzero;stroke:none"
         d="M 3170.6,88.2383 V 125.68 l -71.3,-16.41 c -29.76,-6.661 -33.87,-30.27 -33.87,-43.6098 0,-24.1094 17.96,-36.9297 45.66,-36.9297 34.89,0 59.51,28.7304 59.51,59.5078 z M 3035.68,62.5898 c 0,37.9612 14.37,65.1482 60.54,76.4302 l 74.38,17.441 v 28.23 c -1.54,28.719 -21.03,50.27 -50.79,50.27 -30.78,0 -47.71,-17.441 -47.71,-44.121 0,-2.57 -3.07,-3.59 -3.07,-3.59 h -24.63 c 0,0 -2.56,1.02 -2.56,3.59 0,44.629 33.86,72.84 77.97,72.84 42.07,0 80.55,-27.692 80.55,-87.211 V 8.71875 c 0,-5.12891 -4.62,-5.12891 -4.62,-5.12891 h -20.01 c 0,0 -5.13,0 -5.13,5.12891 V 26.6797 C 3154.18,4.62109 3129.05,0 3111.09,0 c -47.71,0 -75.41,25.6484 -75.41,62.5898" /><path
         id="path64"
         style="fill:#7b7979;fill-opacity:1;fill-rule:nonzero;stroke:none"
         d="m 3442.01,8.71875 c 0,-5.12891 -5.64,-5.12891 -5.64,-5.12891 h -18.98 c 0,0 -5.13,0 -5.13,5.12891 V 26.6797 C 3405.08,12.8281 3386.61,0 3355.83,0 c -43.61,0 -78.49,25.1406 -78.49,88.2383 V 254.961 c 0,5.141 4.62,5.141 4.62,5.141 h 20.52 c 0,0 4.61,0 4.61,-5.141 V 88.2383 c 0,-40.5274 16.42,-59.5078 51.82,-59.5078 16.41,0 53.35,8.7187 53.35,59.5078 V 254.961 c 0,5.141 4.62,5.141 4.62,5.141 h 20.52 c 0,0 4.61,0 4.61,-5.141 V 8.71875" /><path
         id="path66"
         style="fill:#7b7979;fill-opacity:1;fill-rule:nonzero;stroke:none"
         d="m 3587.73,234.961 c -39.5,0 -45.14,-27.199 -45.14,-36.941 0,-10.77 4.1,-23.598 18.98,-31.29 25.14,-13.339 36.42,-20.011 62.07,-33.859 36.43,-20.012 41.56,-45.6522 41.56,-66.6913 C 3665.2,30.2695 3637.49,0 3589.79,0 c -62.59,0 -83.63,50.2695 -83.63,77.4609 0,5.1407 4.62,5.1407 4.62,5.1407 h 20.52 c 0,0 5.14,0 5.14,-5.1407 0,-27.1914 20.51,-48.7304 54.37,-48.7304 23.09,0 45.15,15.3906 45.15,37.4492 0,12.8203 -2.57,27.7109 -29.76,42.0583 L 3550.28,138 c -27.18,14.359 -36.94,40.531 -36.94,58.988 0,25.66 17.45,66.692 74.39,66.692 37.96,0 70.8,-18.969 73.36,-60.532 0,-2.558 0.51,-5.128 -4.11,-6.16 l -18.46,-3.066 c -3.59,-0.512 -5.13,1.019 -5.65,4.617 -2.05,16.922 -10.25,36.422 -45.14,36.422" /><path
         id="path68"
         style="fill:#7b7979;fill-opacity:1;fill-rule:nonzero;stroke:none"
         d="m 3820.16,3.58984 c -50.79,0 -79.01,20.51956 -79.01,77.98046 V 226.75 h -22.06 c -5.13,0 -5.13,4.621 -5.13,4.621 v 18.981 c 0,0 0,5.128 5.13,5.128 h 22.06 v 91.821 c 0,5.129 4.62,5.129 4.62,5.129 h 20 c 0,0 5.14,0 5.14,-5.129 V 255.48 h 53.86 c 5.13,0 5.13,-4.621 5.13,-4.621 v -18.98 c 0,0 0,-5.129 -5.13,-5.129 h -53.86 V 81.5703 c 0,-40.5312 14.87,-48.7422 49.25,-49.25 h 3.07 c 5.13,0 5.13,-4.6094 5.13,-4.6094 V 8.71875 c 0,0 0,-5.12891 -5.13,-5.12891 h -3.07" /><path
         id="path70"
         style="fill:#7b7979;fill-opacity:1;fill-rule:nonzero;stroke:none"
         d="M 3929.43,174.93 V 8.71875 c 0,-5.12891 -5.64,-5.12891 -5.64,-5.12891 h -18.98 c 0,0 -5.13,0 -5.13,5.12891 V 254.961 c 0,5.141 5.13,5.141 5.13,5.141 h 18.98 c 0,0 5.64,0 5.64,-5.141 V 240.09 c 10.78,18.461 36.94,23.59 55.4,23.59 5.14,0 5.14,-5.129 5.14,-5.129 V 239.57 c 0,0 0,-5.629 -5.14,-5.629 -38.46,0 -55.4,-20.531 -55.4,-59.011" /><path
         id="path72"
         style="fill:#7b7979;fill-opacity:1;fill-rule:nonzero;stroke:none"
         d="M 4168.52,88.2383 V 125.68 l -71.31,-16.41 c -29.76,-6.661 -33.86,-30.27 -33.86,-43.6098 0,-24.1094 17.95,-36.9297 45.65,-36.9297 34.89,0 59.52,28.7304 59.52,59.5078 z M 4033.59,62.5898 c 0,37.9612 14.37,65.1482 60.54,76.4302 l 74.39,17.441 v 28.23 c -1.55,28.719 -21.04,50.27 -50.8,50.27 -30.78,0 -47.7,-17.441 -47.7,-44.121 0,-2.57 -3.09,-3.59 -3.09,-3.59 h -24.62 c 0,0 -2.56,1.02 -2.56,3.59 0,44.629 33.85,72.84 77.97,72.84 42.07,0 80.54,-27.692 80.54,-87.211 V 8.71875 c 0,-5.12891 -4.61,-5.12891 -4.61,-5.12891 h -20.01 c 0,0 -5.12,0 -5.12,5.12891 V 26.6797 C 4152.1,4.62109 4126.96,0 4109,0 c -47.7,0 -75.41,25.6484 -75.41,62.5898" /><path
         id="path74"
         style="fill:#7b7979;fill-opacity:1;fill-rule:nonzero;stroke:none"
         d="M 4365.01,24.1094 V 5.14063 c 0,0 0,-5.14063 -5.13,-5.14063 -74.89,0 -81.05,54.8906 -81.05,83.6211 V 357.57 c 0,5.129 4.62,5.129 4.62,5.129 h 20.01 c 0,0 5.12,0 5.12,-5.129 V 83.6211 c 0,-36.9297 12.32,-54.8906 51.3,-54.8906 5.13,0 5.13,-4.6211 5.13,-4.6211" /><path
         id="path76"
         style="fill:#7b7979;fill-opacity:1;fill-rule:nonzero;stroke:none"
         d="m 4427.11,254.961 c 0,5.141 4.62,5.141 4.62,5.141 h 20.01 c 0,0 5.13,0 5.13,-5.141 V 8.71875 c 0,-5.12891 -4.62,-5.12891 -4.62,-5.12891 h -20.01 c 0,0 -5.13,0 -5.13,5.12891 z m 33.35,69.258 c 0,-5.129 -4.62,-5.129 -4.62,-5.129 h -26.68 c 0,0 -5.13,0 -5.13,5.129 v 33.351 c 0,5.129 4.62,5.129 4.62,5.129 h 26.67 c 0,0 5.14,0 5.14,-5.129 v -33.351" /><path
         id="path78"
         style="fill:#7b7979;fill-opacity:1;fill-rule:nonzero;stroke:none"
         d="M 4667.21,88.2383 V 125.68 l -71.31,-16.41 c -29.76,-6.661 -33.86,-30.27 -33.86,-43.6098 0,-24.1094 17.95,-36.9297 45.66,-36.9297 34.88,0 59.51,28.7304 59.51,59.5078 z M 4532.29,62.5898 c 0,37.9612 14.36,65.1482 60.53,76.4302 l 74.39,17.441 v 28.23 c -1.55,28.719 -21.04,50.27 -50.79,50.27 -30.79,0 -47.71,-17.441 -47.71,-44.121 0,-2.57 -3.08,-3.59 -3.08,-3.59 h -24.62 c 0,0 -2.57,1.02 -2.57,3.59 0,44.629 33.85,72.84 77.98,72.84 42.07,0 80.53,-27.692 80.53,-87.211 V 8.71875 c 0,-5.12891 -4.61,-5.12891 -4.61,-5.12891 h -20.01 c 0,0 -5.12,0 -5.12,5.12891 V 26.6797 C 4650.79,4.62109 4625.65,0 4607.7,0 c -47.71,0 -75.41,25.6484 -75.41,62.5898" /><path
         id="path80"
         style="fill:#7b7979;fill-opacity:1;fill-rule:nonzero;stroke:none"
         d="m 4776.5,254.961 c 0,5.141 4.62,5.141 4.62,5.141 h 20.52 c 0,0 4.62,0 4.62,-5.141 V 240.09 c 11.8,16.41 32.31,23.59 54.37,23.59 46.18,0 80.55,-30.258 80.55,-87.211 V 8.71875 c 0,-5.12891 -5.14,-5.12891 -5.14,-5.12891 h -19.49 c 0,0 -5.12,0 -5.12,5.12891 V 176.469 c 0,33.351 -14.37,58.492 -52.33,58.492 -41.04,0 -52.84,-31.301 -52.84,-58.492 V 8.71875 c 0,-5.12891 -5.64,-5.12891 -5.64,-5.12891 h -18.99 c 0,0 -5.13,0 -5.13,5.12891 V 254.961" /><path
         id="path82"
         style="fill:#7b7979;fill-opacity:1;fill-rule:nonzero;stroke:none"
         d="m 5268.52,89.2695 h 17.94 c 4.11,0 6.67,-2.0507 6.67,-6.6679 C 5293.13,42.582 5268.52,0 5212.08,0 c -50.27,0 -83.61,28.7305 -83.61,92.3398 v 76.9612 c 0,67.711 33.34,94.379 83.61,94.379 29.76,0 68.23,-10.77 76.44,-62.578 0.51,-2.563 1.02,-5.133 -3.08,-6.672 l -18.98,-5.129 c -3.08,-1.031 -5.13,0.508 -5.64,4.109 -2.06,18.469 -14.88,41.551 -48.74,41.551 -36.93,0 -53.87,-22.063 -53.87,-66.691 V 92.3398 c 0,-36.4179 18.48,-63.6093 53.87,-63.6093 36.43,0 51.3,30.7812 51.3,54.8906 0,5.6484 5.14,5.6484 5.14,5.6484" /><path
         id="path84"
         style="fill:#7b7979;fill-opacity:1;fill-rule:nonzero;stroke:none"
         d="M 5452.2,24.1094 V 5.14063 c 0,0 0,-5.14063 -5.14,-5.14063 -74.89,0 -81.05,54.8906 -81.05,83.6211 V 357.57 c 0,5.129 4.62,5.129 4.62,5.129 h 20 c 0,0 5.13,0 5.13,-5.129 V 83.6211 c 0,-36.9297 12.32,-54.8906 51.3,-54.8906 5.14,0 5.14,-4.6211 5.14,-4.6211" /><path
         id="path86"
         style="fill:#7b7979;fill-opacity:1;fill-rule:nonzero;stroke:none"
         d="m 5633.82,91.832 v 76.949 c 0,50.27 -22.06,66.18 -52.84,66.18 -30.78,0 -52.85,-15.91 -52.85,-66.18 V 91.832 c 0,-40.0117 22.58,-63.1015 52.85,-63.1015 30.26,0 52.84,23.0898 52.84,63.1015 z m 29.75,76.949 V 92.3398 C 5663.57,36.4297 5638.44,0 5580.98,0 c -57.45,0 -82.59,36.4297 -82.59,92.3398 v 76.4412 c 0,61.039 26.67,94.899 82.59,94.899 55.91,0 82.59,-33.86 82.59,-94.899" /><path
         id="path88"
         style="fill:#7b7979;fill-opacity:1;fill-rule:nonzero;stroke:none"
         d="m 5897.53,8.71875 c 0,-5.12891 -5.65,-5.12891 -5.65,-5.12891 h -18.97 c 0,0 -5.14,0 -5.14,5.12891 V 26.6797 C 5860.6,12.8281 5842.13,0 5811.35,0 c -43.61,0 -78.49,25.1406 -78.49,88.2383 V 254.961 c 0,5.141 4.61,5.141 4.61,5.141 H 5758 c 0,0 4.61,0 4.61,-5.141 V 88.2383 c 0,-40.5274 16.41,-59.5078 51.81,-59.5078 16.42,0 53.35,8.7187 53.35,59.5078 V 254.961 c 0,5.141 4.62,5.141 4.62,5.141 h 20.52 c 0,0 4.62,0 4.62,-5.141 V 8.71875" /><path
         id="path90"
         style="fill:#7b7979;fill-opacity:1;fill-rule:nonzero;stroke:none"
         d="m 6102.75,176.988 c 0,44.633 -30.78,57.973 -55.4,57.973 -34.37,0 -50.79,-23.082 -50.79,-57.973 V 83.1094 c 0,-30.2696 20.53,-54.3789 48.74,-54.3789 33.34,0 57.45,17.4414 57.45,54.3789 z M 6132.51,8.71875 c 0,-5.12891 -5.13,-5.12891 -5.13,-5.12891 h -20.01 c 0,0 -4.62,0 -4.62,5.12891 V 26.6797 C 6086.34,4.62109 6063.25,0 6045.3,0 c -46.17,0 -78.48,35.9102 -78.48,83.1094 0,0 0,80.5386 0,93.8786 0,47.711 26.67,86.692 80.53,86.692 20.01,0 46.18,-8.719 55.4,-23.59 v 117.48 c 0,5.129 4.62,5.129 4.62,5.129 h 20.52 c 2.57,0 4.62,-2.058 4.62,-5.129 V 8.71875" /></g></g></svg>